<?xml version="1.0" encoding="UTF-8" standalone="no"?>
<!-- Created with Inkscape (http://www.inkscape.org/) -->

<svg
   xmlns:dc="http://purl.org/dc/elements/1.1/"
   xmlns:cc="http://creativecommons.org/ns#"
   xmlns:rdf="http://www.w3.org/1999/02/22-rdf-syntax-ns#"
   xmlns:svg="http://www.w3.org/2000/svg"
   xmlns="http://www.w3.org/2000/svg"
   xmlns:xlink="http://www.w3.org/1999/xlink"
   xmlns:sodipodi="http://sodipodi.sourceforge.net/DTD/sodipodi-0.dtd"
   xmlns:inkscape="http://www.inkscape.org/namespaces/inkscape"
   width="64px"
   height="64px"
   viewBox="0 0 64 64"
   version="1.1"
   id="SVGRoot"
   inkscape:version="0.92.2 2405546, 2018-03-11"
   sodipodi:docname="splash.svg"
   inkscape:export-filename="/run/media/main/Documents/Android Projects/fontpack/svgs/splash.png"
   inkscape:export-xdpi="3276.5217"
   inkscape:export-ydpi="3276.5217">
  <sodipodi:namedview
     id="base"
     pagecolor="#ffffff"
     bordercolor="#666666"
     borderopacity="1.0"
     inkscape:pageopacity="0.0"
     inkscape:pageshadow="2"
     inkscape:zoom="5.6568542"
     inkscape:cx="6.9577846"
     inkscape:cy="38.508742"
     inkscape:document-units="px"
     inkscape:current-layer="layer1"
     showgrid="true"
     inkscape:window-width="1920"
     inkscape:window-height="1017"
     inkscape:window-x="0"
     inkscape:window-y="0"
     inkscape:window-maximized="1"
     inkscape:grid-bbox="true"
     inkscape:snap-grids="true"
     inkscape:snap-bbox="true"
     inkscape:bbox-paths="false"
     inkscape:bbox-nodes="false"
     inkscape:snap-bbox-edge-midpoints="false"
     inkscape:snap-bbox-midpoints="false"
     inkscape:object-paths="true"
     inkscape:snap-smooth-nodes="true"
     inkscape:snap-object-midpoints="true"
     inkscape:snap-text-baseline="false"
     inkscape:object-nodes="true"
     showguides="true"
     inkscape:guide-bbox="true"
     inkscape:snap-intersection-paths="true"
     inkscape:snap-midpoints="true"
     inkscape:snap-center="true"
     inkscape:snap-nodes="true"
     inkscape:snap-others="true"
     inkscape:snap-to-guides="true">
    <inkscape:grid
       type="xygrid"
       id="grid50"
       empspacing="4"
       spacingx="0.25"
       spacingy="0.25" />
    <sodipodi:guide
       position="33.747127,47.332339"
       orientation="0.70710678,0.70710678"
       id="guide4721"
       inkscape:locked="false" />
    <sodipodi:guide
       position="20.096433,19.472342"
       orientation="0.70710678,0.70710678"
       id="guide4726"
       inkscape:locked="false" />
  </sodipodi:namedview>
  <defs
     id="defs34">
    <linearGradient
       inkscape:collect="always"
       id="linearGradient4751">
      <stop
         style="stop-color:#000000;stop-opacity:0.455"
         offset="0"
         id="stop4747" />
      <stop
         style="stop-color:#000000;stop-opacity:0"
         offset="1"
         id="stop4749" />
    </linearGradient>
    <clipPath
       clipPathUnits="userSpaceOnUse"
       id="clipPath4713">
      <rect
         style="fill:#000000;fill-opacity:0.49019608;stroke-width:0.1;stroke-miterlimit:4;stroke-dasharray:none"
         id="rect4715"
         width="64"
         height="32"
         x="0"
         y="0" />
    </clipPath>
    <linearGradient
       inkscape:collect="always"
       xlink:href="#linearGradient4751"
       id="linearGradient4755"
       x1="33.74773"
       y1="16.668264"
       x2="58.376793"
       y2="41.297325"
       gradientUnits="userSpaceOnUse" />
  </defs>
  <metadata
     id="metadata37">
    <rdf:RDF>
      <cc:Work
         rdf:about="">
        <dc:format>image/svg+xml</dc:format>
        <dc:type
           rdf:resource="http://purl.org/dc/dcmitype/StillImage" />
        <dc:title />
      </cc:Work>
    </rdf:RDF>
  </metadata>
  <g
     id="layer1"
     inkscape:groupmode="layer"
     inkscape:label="Layer 1">
    <rect
       style="fill:#00cbad;fill-opacity:1;stroke-width:1.04880881"
       id="rect840"
       width="120"
       height="44"
       x="-28"
       y="32" />
    <rect
       id="rect838"
       width="120"
       height="48"
       x="-28"
       y="-16"
       style="fill:#00a088;fill-opacity:1" />
    <path
       style="fill:#ffffff;fill-opacity:0.27777782;stroke-width:2.96278119"
       d="m -28,32 v 1 H 92 v -1 z"
       id="rect831"
       inkscape:connector-curvature="0"
       sodipodi:nodetypes="ccccc" />
    <path
       style="fill:url(#linearGradient4755);fill-opacity:1;stroke:none;stroke-width:1px;stroke-linecap:butt;stroke-linejoin:miter;stroke-opacity:1"
       d="M 33.748047,16.667969 32,18.292969 24.755859,31.001953 20.746094,42.595703 20.095703,44.527344 40.902658,65.333883 C 51.469616,64.057728 54.830586,51.332435 58.376953,41.296875 Z"
       id="path4728"
       inkscape:connector-curvature="0"
       sodipodi:nodetypes="cccccccc" />
    <path
       inkscape:connector-curvature="0"
       id="path4723"
       style="font-style:normal;font-variant:normal;font-weight:normal;font-stretch:normal;font-size:medium;line-height:1.25;font-family:Ubuntu;-inkscape-font-specification:Ubuntu;letter-spacing:0px;word-spacing:0px;fill:#b0f9e5;fill-opacity:1;stroke:none;stroke-width:0.96542257"
       d="m 40.164437,44.527658 q -0.630603,-1.80909 -1.187017,-3.537777 -0.556413,-1.768888 -1.149923,-3.57798 H 26.179894 l -2.336939,7.115757 h -3.746522 q 1.483771,-4.422222 2.78207,-8.161009 1.298301,-3.778989 2.522411,-7.155959 1.261206,-3.376969 2.485318,-6.432322 1.22411,-3.095556 2.559505,-6.110707 h 3.30139 q 1.335394,3.015151 2.559505,6.110707 1.224111,3.055353 2.448223,6.432322 1.261205,3.37697 2.559505,7.155959 1.298299,3.738787 2.782071,8.161009 z M 36.788858,34.19574 q -1.187017,-3.497576 -2.374034,-6.753938 -1.149922,-3.296566 -2.411128,-6.311717 -1.2983,3.015151 -2.485317,6.311717 -1.149922,3.256362 -2.299845,6.753938 z" />
    <path
       style="font-style:normal;font-variant:normal;font-weight:normal;font-stretch:normal;font-size:medium;line-height:1.25;font-family:Ubuntu;-inkscape-font-specification:Ubuntu;letter-spacing:0px;word-spacing:0px;fill:#ffffff;fill-opacity:1;stroke:none;stroke-width:0.96542257"
       d="m 30.445312,16.667969 c -0.890263,2.0101 -1.74252,4.047624 -2.558593,6.111328 -0.816075,2.036902 -1.645524,4.180328 -2.486328,6.431641 -0.816074,2.251313 -1.655951,4.636923 -2.521485,7.15625 -0.865532,2.492524 -1.794022,5.212008 -2.783203,8.160156 h 0.476563 c 0.914331,-2.719565 1.786875,-5.283817 2.59375,-7.607422 0.865534,-2.519326 1.705411,-4.904937 2.521484,-7.15625 0.840804,-2.251313 1.670253,-4.396692 2.486328,-6.433594 0.816073,-2.063704 1.668331,-4.099274 2.558594,-6.109375 h 3.253906 c -0.08047,-0.183514 -0.1572,-0.369664 -0.238281,-0.552734 z m 6.34375,17.527343 -9.570528,4.28e-4 -0.1875,0.552735 9.974825,0.0035 z"
       id="path4723-0"
       inkscape:connector-curvature="0"
       sodipodi:nodetypes="cccccccccccccccccc" />
  </g>
</svg>
